<mxfile host="app.diagrams.net" agent="Mozilla/5.0 (Macintosh; Intel Mac OS X 10_15_7) AppleWebKit/537.36 (KHTML, like Gecko) Chrome/127.0.0.0 Safari/537.36" version="24.7.12" pages="3">
  <diagram name="inactivar-cliente" id="dxfZtktsnoThUHCxVJP5">
    <mxGraphModel dx="1026" dy="651" grid="1" gridSize="10" guides="1" tooltips="1" connect="1" arrows="1" fold="1" page="1" pageScale="1" pageWidth="827" pageHeight="1169" math="0" shadow="0">
      <root>
        <mxCell id="0" />
        <mxCell id="1" parent="0" />
        <mxCell id="FXGeO9gxMijoWjM9d7Dj-1" value="Usuario" style="swimlane;whiteSpace=wrap" vertex="1" parent="1">
          <mxGeometry x="40" y="140" width="365" height="740" as="geometry" />
        </mxCell>
        <mxCell id="FXGeO9gxMijoWjM9d7Dj-2" value="" style="ellipse;shape=startState;fillColor=#000000;strokeColor=#7A0000;" vertex="1" parent="FXGeO9gxMijoWjM9d7Dj-1">
          <mxGeometry x="180" y="40" width="30" height="30" as="geometry" />
        </mxCell>
        <mxCell id="FXGeO9gxMijoWjM9d7Dj-3" value="" style="edgeStyle=elbowEdgeStyle;elbow=horizontal;verticalAlign=bottom;endArrow=open;endSize=8;strokeColor=#000000;endFill=1;rounded=0" edge="1" parent="FXGeO9gxMijoWjM9d7Dj-1" target="FXGeO9gxMijoWjM9d7Dj-4">
          <mxGeometry x="100" y="40" as="geometry">
            <mxPoint x="195" y="110" as="targetPoint" />
            <mxPoint x="195" y="70" as="sourcePoint" />
          </mxGeometry>
        </mxCell>
        <mxCell id="FXGeO9gxMijoWjM9d7Dj-4" value="Solicita Libro" style="rounded=1;glass=0;shadow=0;" vertex="1" parent="FXGeO9gxMijoWjM9d7Dj-1">
          <mxGeometry x="140" y="110" width="110" height="50" as="geometry" />
        </mxCell>
        <mxCell id="FXGeO9gxMijoWjM9d7Dj-5" style="edgeStyle=orthogonalEdgeStyle;rounded=1;orthogonalLoop=1;jettySize=auto;html=1;entryX=0.5;entryY=0;entryDx=0;entryDy=0;" edge="1" parent="FXGeO9gxMijoWjM9d7Dj-1" source="FXGeO9gxMijoWjM9d7Dj-6" target="FXGeO9gxMijoWjM9d7Dj-11">
          <mxGeometry relative="1" as="geometry" />
        </mxCell>
        <mxCell id="FXGeO9gxMijoWjM9d7Dj-6" value="Selecciona otro libro" style="" vertex="1" parent="FXGeO9gxMijoWjM9d7Dj-1">
          <mxGeometry x="140" y="195" width="110" height="50" as="geometry" />
        </mxCell>
        <mxCell id="FXGeO9gxMijoWjM9d7Dj-7" style="edgeStyle=orthogonalEdgeStyle;rounded=1;orthogonalLoop=1;jettySize=auto;html=1;entryX=0.5;entryY=0;entryDx=0;entryDy=0;" edge="1" parent="FXGeO9gxMijoWjM9d7Dj-1" source="FXGeO9gxMijoWjM9d7Dj-8" target="FXGeO9gxMijoWjM9d7Dj-9">
          <mxGeometry relative="1" as="geometry" />
        </mxCell>
        <mxCell id="FXGeO9gxMijoWjM9d7Dj-8" value="Cancelar&#xa;Prestamo" style="" vertex="1" parent="FXGeO9gxMijoWjM9d7Dj-1">
          <mxGeometry x="40" y="280" width="70" height="50" as="geometry" />
        </mxCell>
        <mxCell id="FXGeO9gxMijoWjM9d7Dj-9" value="" style="ellipse;shape=startState;fillColor=#000000;strokeColor=#7A0000;" vertex="1" parent="FXGeO9gxMijoWjM9d7Dj-1">
          <mxGeometry x="60" y="360" width="30" height="30" as="geometry" />
        </mxCell>
        <mxCell id="FXGeO9gxMijoWjM9d7Dj-10" style="edgeStyle=orthogonalEdgeStyle;rounded=1;orthogonalLoop=1;jettySize=auto;html=1;entryX=1;entryY=0.5;entryDx=0;entryDy=0;" edge="1" parent="FXGeO9gxMijoWjM9d7Dj-1" source="FXGeO9gxMijoWjM9d7Dj-11" target="FXGeO9gxMijoWjM9d7Dj-8">
          <mxGeometry relative="1" as="geometry" />
        </mxCell>
        <mxCell id="FXGeO9gxMijoWjM9d7Dj-11" value="" style="rhombus;fillColor=#ffffc0;strokeColor=#000000;" vertex="1" parent="FXGeO9gxMijoWjM9d7Dj-1">
          <mxGeometry x="175" y="285" width="40" height="40" as="geometry" />
        </mxCell>
        <mxCell id="FXGeO9gxMijoWjM9d7Dj-12" value="No" style="text;html=1;align=center;verticalAlign=middle;resizable=0;points=[];autosize=1;strokeColor=none;fillColor=none;" vertex="1" parent="FXGeO9gxMijoWjM9d7Dj-1">
          <mxGeometry x="140" y="280" width="40" height="30" as="geometry" />
        </mxCell>
        <mxCell id="FXGeO9gxMijoWjM9d7Dj-13" value="Si" style="text;html=1;align=center;verticalAlign=middle;resizable=0;points=[];autosize=1;strokeColor=none;fillColor=none;" vertex="1" parent="FXGeO9gxMijoWjM9d7Dj-1">
          <mxGeometry x="215" y="270" width="30" height="30" as="geometry" />
        </mxCell>
        <mxCell id="FXGeO9gxMijoWjM9d7Dj-14" value="Presenta requisitos&#xa;Prestamo" style="" vertex="1" parent="FXGeO9gxMijoWjM9d7Dj-1">
          <mxGeometry x="40" y="405" width="110" height="50" as="geometry" />
        </mxCell>
        <mxCell id="FXGeO9gxMijoWjM9d7Dj-15" style="edgeStyle=orthogonalEdgeStyle;rounded=1;orthogonalLoop=1;jettySize=auto;html=1;entryX=1;entryY=0.5;entryDx=0;entryDy=0;" edge="1" parent="FXGeO9gxMijoWjM9d7Dj-1" source="FXGeO9gxMijoWjM9d7Dj-16" target="FXGeO9gxMijoWjM9d7Dj-17">
          <mxGeometry relative="1" as="geometry" />
        </mxCell>
        <mxCell id="FXGeO9gxMijoWjM9d7Dj-16" value="Confirma recibido" style="shape=note;whiteSpace=wrap;size=17" vertex="1" parent="FXGeO9gxMijoWjM9d7Dj-1">
          <mxGeometry x="132.5" y="620" width="100" height="50" as="geometry" />
        </mxCell>
        <mxCell id="FXGeO9gxMijoWjM9d7Dj-17" value="" style="ellipse;shape=startState;fillColor=#000000;strokeColor=#7A0000;" vertex="1" parent="FXGeO9gxMijoWjM9d7Dj-1">
          <mxGeometry x="50" y="630" width="30" height="30" as="geometry" />
        </mxCell>
        <mxCell id="FXGeO9gxMijoWjM9d7Dj-18" value="Biblioteca" style="swimlane;whiteSpace=wrap" vertex="1" parent="1">
          <mxGeometry x="405" y="140" width="280" height="740" as="geometry" />
        </mxCell>
        <mxCell id="FXGeO9gxMijoWjM9d7Dj-19" style="edgeStyle=orthogonalEdgeStyle;rounded=1;orthogonalLoop=1;jettySize=auto;html=1;entryX=0.5;entryY=0;entryDx=0;entryDy=0;" edge="1" parent="FXGeO9gxMijoWjM9d7Dj-18" target="FXGeO9gxMijoWjM9d7Dj-25">
          <mxGeometry relative="1" as="geometry">
            <mxPoint x="141.25" y="350" as="sourcePoint" />
          </mxGeometry>
        </mxCell>
        <mxCell id="FXGeO9gxMijoWjM9d7Dj-20" style="edgeStyle=orthogonalEdgeStyle;rounded=1;orthogonalLoop=1;jettySize=auto;html=1;entryX=0.5;entryY=0;entryDx=0;entryDy=0;" edge="1" parent="FXGeO9gxMijoWjM9d7Dj-18" source="FXGeO9gxMijoWjM9d7Dj-21">
          <mxGeometry relative="1" as="geometry">
            <mxPoint x="141.25" y="300" as="targetPoint" />
          </mxGeometry>
        </mxCell>
        <mxCell id="FXGeO9gxMijoWjM9d7Dj-21" value="" style="rhombus;fillColor=#ffffc0;strokeColor=#000000;" vertex="1" parent="FXGeO9gxMijoWjM9d7Dj-18">
          <mxGeometry x="121.25" y="200" width="40" height="40" as="geometry" />
        </mxCell>
        <mxCell id="FXGeO9gxMijoWjM9d7Dj-22" style="edgeStyle=orthogonalEdgeStyle;rounded=1;orthogonalLoop=1;jettySize=auto;html=1;entryX=0.5;entryY=0;entryDx=0;entryDy=0;" edge="1" parent="FXGeO9gxMijoWjM9d7Dj-18" source="FXGeO9gxMijoWjM9d7Dj-23" target="FXGeO9gxMijoWjM9d7Dj-21">
          <mxGeometry relative="1" as="geometry" />
        </mxCell>
        <mxCell id="FXGeO9gxMijoWjM9d7Dj-23" value="Verifica disponibilidad" style="rounded=1;" vertex="1" parent="FXGeO9gxMijoWjM9d7Dj-18">
          <mxGeometry x="72.5" y="110" width="137.5" height="50" as="geometry" />
        </mxCell>
        <mxCell id="FXGeO9gxMijoWjM9d7Dj-24" value="No" style="text;html=1;align=center;verticalAlign=middle;resizable=0;points=[];autosize=1;strokeColor=none;fillColor=none;" vertex="1" parent="FXGeO9gxMijoWjM9d7Dj-18">
          <mxGeometry x="85" y="190" width="40" height="30" as="geometry" />
        </mxCell>
        <mxCell id="FXGeO9gxMijoWjM9d7Dj-25" value="" style="rhombus;fillColor=#ffffc0;strokeColor=#000000;" vertex="1" parent="FXGeO9gxMijoWjM9d7Dj-18">
          <mxGeometry x="121.25" y="410" width="40" height="40" as="geometry" />
        </mxCell>
        <mxCell id="FXGeO9gxMijoWjM9d7Dj-26" value="No" style="text;html=1;align=center;verticalAlign=middle;resizable=0;points=[];autosize=1;strokeColor=none;fillColor=none;" vertex="1" parent="FXGeO9gxMijoWjM9d7Dj-18">
          <mxGeometry x="85" y="400" width="40" height="30" as="geometry" />
        </mxCell>
        <mxCell id="FXGeO9gxMijoWjM9d7Dj-27" value="Si" style="text;html=1;align=center;verticalAlign=middle;resizable=0;points=[];autosize=1;strokeColor=none;fillColor=none;" vertex="1" parent="FXGeO9gxMijoWjM9d7Dj-18">
          <mxGeometry x="140" y="438" width="30" height="30" as="geometry" />
        </mxCell>
        <mxCell id="FXGeO9gxMijoWjM9d7Dj-28" value="Valida Requisitos&#xa;prestamo" style="shape=note;whiteSpace=wrap;size=17" vertex="1" parent="FXGeO9gxMijoWjM9d7Dj-18">
          <mxGeometry x="91.25" y="300" width="100" height="50" as="geometry" />
        </mxCell>
        <mxCell id="FXGeO9gxMijoWjM9d7Dj-29" value="Envia notificación&#xa;Préstamo" style="shape=note;whiteSpace=wrap;size=17" vertex="1" parent="FXGeO9gxMijoWjM9d7Dj-18">
          <mxGeometry x="91.25" y="620" width="100" height="50" as="geometry" />
        </mxCell>
        <mxCell id="FXGeO9gxMijoWjM9d7Dj-30" style="edgeStyle=orthogonalEdgeStyle;rounded=1;orthogonalLoop=1;jettySize=auto;html=1;entryX=0.5;entryY=0;entryDx=0;entryDy=0;entryPerimeter=0;" edge="1" parent="FXGeO9gxMijoWjM9d7Dj-18" source="FXGeO9gxMijoWjM9d7Dj-32" target="FXGeO9gxMijoWjM9d7Dj-29">
          <mxGeometry relative="1" as="geometry" />
        </mxCell>
        <mxCell id="FXGeO9gxMijoWjM9d7Dj-31" value="" style="edgeStyle=orthogonalEdgeStyle;rounded=1;orthogonalLoop=1;jettySize=auto;html=1;entryX=0.5;entryY=0;entryDx=0;entryDy=0;entryPerimeter=0;" edge="1" parent="FXGeO9gxMijoWjM9d7Dj-18" source="FXGeO9gxMijoWjM9d7Dj-25" target="FXGeO9gxMijoWjM9d7Dj-32">
          <mxGeometry relative="1" as="geometry">
            <mxPoint x="546" y="590" as="sourcePoint" />
            <mxPoint x="545" y="850" as="targetPoint" />
          </mxGeometry>
        </mxCell>
        <mxCell id="FXGeO9gxMijoWjM9d7Dj-32" value="Entrega Libro" style="shape=note;whiteSpace=wrap;size=17" vertex="1" parent="FXGeO9gxMijoWjM9d7Dj-18">
          <mxGeometry x="91.25" y="510" width="100" height="50" as="geometry" />
        </mxCell>
        <mxCell id="FXGeO9gxMijoWjM9d7Dj-33" value="Si" style="text;html=1;align=center;verticalAlign=middle;resizable=0;points=[];autosize=1;strokeColor=none;fillColor=none;" vertex="1" parent="1">
          <mxGeometry x="545" y="378" width="30" height="30" as="geometry" />
        </mxCell>
        <mxCell id="FXGeO9gxMijoWjM9d7Dj-34" style="edgeStyle=orthogonalEdgeStyle;rounded=1;orthogonalLoop=1;jettySize=auto;html=1;entryX=0;entryY=0.5;entryDx=0;entryDy=0;" edge="1" parent="1" source="FXGeO9gxMijoWjM9d7Dj-4" target="FXGeO9gxMijoWjM9d7Dj-23">
          <mxGeometry relative="1" as="geometry" />
        </mxCell>
        <mxCell id="FXGeO9gxMijoWjM9d7Dj-35" style="edgeStyle=orthogonalEdgeStyle;rounded=1;orthogonalLoop=1;jettySize=auto;html=1;entryX=1;entryY=0.5;entryDx=0;entryDy=0;" edge="1" parent="1" source="FXGeO9gxMijoWjM9d7Dj-21" target="FXGeO9gxMijoWjM9d7Dj-6">
          <mxGeometry relative="1" as="geometry" />
        </mxCell>
        <mxCell id="FXGeO9gxMijoWjM9d7Dj-36" style="edgeStyle=orthogonalEdgeStyle;rounded=1;orthogonalLoop=1;jettySize=auto;html=1;entryX=0;entryY=0.75;entryDx=0;entryDy=0;" edge="1" parent="1" source="FXGeO9gxMijoWjM9d7Dj-11" target="FXGeO9gxMijoWjM9d7Dj-23">
          <mxGeometry relative="1" as="geometry" />
        </mxCell>
        <mxCell id="FXGeO9gxMijoWjM9d7Dj-37" style="edgeStyle=orthogonalEdgeStyle;rounded=1;orthogonalLoop=1;jettySize=auto;html=1;entryX=1;entryY=0.5;entryDx=0;entryDy=0;" edge="1" parent="1" source="FXGeO9gxMijoWjM9d7Dj-25" target="FXGeO9gxMijoWjM9d7Dj-14">
          <mxGeometry relative="1" as="geometry" />
        </mxCell>
        <mxCell id="FXGeO9gxMijoWjM9d7Dj-38" style="edgeStyle=orthogonalEdgeStyle;rounded=1;orthogonalLoop=1;jettySize=auto;html=1;entryX=1.035;entryY=0.5;entryDx=0;entryDy=0;entryPerimeter=0;" edge="1" parent="1" source="FXGeO9gxMijoWjM9d7Dj-29" target="FXGeO9gxMijoWjM9d7Dj-16">
          <mxGeometry relative="1" as="geometry" />
        </mxCell>
      </root>
    </mxGraphModel>
  </diagram>
  <diagram id="Lm-CPyoYL5kOA-Re4PZ5" name="activar-cliente">
    <mxGraphModel dx="1026" dy="651" grid="1" gridSize="10" guides="1" tooltips="1" connect="1" arrows="1" fold="1" page="1" pageScale="1" pageWidth="827" pageHeight="1169" math="0" shadow="0">
      <root>
        <mxCell id="0" />
        <mxCell id="1" parent="0" />
      </root>
    </mxGraphModel>
  </diagram>
  <diagram id="6-_83_sqMm-ndkB3xGhE" name="lectura-consumos">
    <mxGraphModel dx="1026" dy="651" grid="1" gridSize="10" guides="1" tooltips="1" connect="1" arrows="1" fold="1" page="1" pageScale="1" pageWidth="827" pageHeight="1169" math="0" shadow="0">
      <root>
        <mxCell id="0" />
        <mxCell id="1" parent="0" />
      </root>
    </mxGraphModel>
  </diagram>
</mxfile>
